<?xml version="1.0" encoding="iso-8859-1"?>
<!-- Generator: Adobe Illustrator 19.0.0, SVG Export Plug-In . SVG Version: 6.00 Build 0)  -->
<svg version="1.1" id="Capa_1" xmlns="http://www.w3.org/2000/svg" xmlns:xlink="http://www.w3.org/1999/xlink" x="0px" y="0px"
	 viewBox="0 0 512 512" style="enable-background:new 0 0 512 512;" xml:space="preserve">
<path style="fill:#E1E4FB;" d="M512,256l-7.501,9.371c-1.13,1.41-28.123,34.914-71.888,68.748
	c-25.853,19.982-52.236,35.934-78.419,47.416c-33.244,14.572-66.278,21.963-98.191,21.963s-64.948-7.391-98.191-21.963
	c-26.183-11.481-52.566-27.433-78.419-47.416c-43.765-33.834-70.758-67.338-71.888-68.748L0,256l7.501-9.371
	c1.13-1.41,28.123-34.914,71.888-68.748c25.853-19.982,52.236-35.934,78.419-47.416c33.244-14.572,66.278-21.963,98.191-21.963
	s64.948,7.391,98.191,21.963c26.183,11.481,52.566,27.433,78.419,47.416c43.765,33.834,70.758,67.338,71.888,68.748L512,256z"/>
<path id="SVGCleanerId_0" style="fill:#FFFFFF;" d="M256,374.014c-65.073,0-118.014-52.941-118.014-118.014
	S190.927,137.986,256,137.986S374.014,190.927,374.014,256S321.073,374.014,256,374.014z"/>
<g>
	<path id="SVGCleanerId_0_1_" style="fill:#FFFFFF;" d="M256,374.014c-65.073,0-118.014-52.941-118.014-118.014
		S190.927,137.986,256,137.986S374.014,190.927,374.014,256S321.073,374.014,256,374.014z"/>
</g>
<path style="fill:#C5C9F7;" d="M512,256l-7.501,9.371c-1.13,1.41-28.123,34.914-71.888,68.748
	c-25.853,19.982-52.236,35.934-78.419,47.416c-33.244,14.572-66.278,21.963-98.191,21.963V108.503
	c31.914,0,64.948,7.391,98.191,21.963c26.183,11.481,52.566,27.433,78.419,47.416c43.765,33.834,70.758,67.338,71.888,68.748
	L512,256z"/>
<path style="fill:#FFB74F;" d="M374.014,256c0,65.078-52.936,118.014-118.014,118.014S137.986,321.078,137.986,256
	S190.922,137.986,256,137.986S374.014,190.922,374.014,256z"/>
<path style="fill:#FF9A00;" d="M374.014,256c0,65.078-52.936,118.014-118.014,118.014V137.986
	C321.078,137.986,374.014,190.922,374.014,256z"/>
<path style="fill:#FF6341;" d="M306.876,256c0,28.093-22.783,50.876-50.876,50.876S205.124,284.093,205.124,256
	s22.783-50.876,50.876-50.876S306.876,227.907,306.876,256z"/>
<path style="fill:#FF3100;" d="M306.876,256c0,28.093-22.783,50.876-50.876,50.876V205.124
	C284.093,205.124,306.876,227.907,306.876,256z"/>
</svg>
