<svg id="Layer_1" enable-background="new 0 0 256 256" height="512" viewBox="0 0 256 256" width="512" xmlns="http://www.w3.org/2000/svg"><g><g><g><path d="m219.765 17h-54.699v74h74v-54.699c0-10.66-8.642-19.301-19.301-19.301z" fill="#e96c7a"/></g></g><g><g><path d="m219.765 15.5h-54.699c-.828 0-1.5.671-1.5 1.5v74c0 .829.672 1.5 1.5 1.5h74c.828 0 1.5-.671 1.5-1.5v-54.699c0-11.47-9.332-20.801-20.801-20.801zm17.801 74h-71v-71h53.199c9.815 0 17.801 7.985 17.801 17.801z" fill="#3a312a"/></g></g><g><g><path d="m36.366 17c-10.66 0-19.301 8.641-19.301 19.301v54.699h74v-74z" fill="#e96c7a"/></g></g><g><g><path d="m91.066 15.5h-54.7c-11.47 0-20.801 9.331-20.801 20.801v54.699c0 .829.672 1.5 1.5 1.5h74c.828 0 1.5-.671 1.5-1.5v-74c.001-.829-.671-1.5-1.499-1.5zm-1.5 74h-71v-53.199c0-9.815 7.985-17.801 17.801-17.801h53.199z" fill="#3a312a"/></g></g><g><g><path d="m17.066 91h74v74h-74z" fill="#d4da55"/></g></g><g><g><path d="m91.066 89.5h-74c-.828 0-1.5.671-1.5 1.5v24.052c0 .829.672 1.5 1.5 1.5s1.5-.671 1.5-1.5v-22.552h71v71h-71v-33.886c0-.829-.672-1.5-1.5-1.5s-1.5.671-1.5 1.5v35.386c0 .829.672 1.5 1.5 1.5h74c.828 0 1.5-.671 1.5-1.5v-74c0-.829-.672-1.5-1.5-1.5z" fill="#3a312a"/></g></g><g><g><path d="m165.066 91h74v74h-74z" fill="#d4da55"/></g></g><g><g><path d="m239.066 89.5h-74c-.828 0-1.5.671-1.5 1.5v74c0 .829.672 1.5 1.5 1.5h74c.828 0 1.5-.671 1.5-1.5v-74c0-.829-.672-1.5-1.5-1.5zm-1.5 74h-71v-71h71z" fill="#3a312a"/></g></g><g><g><path d="m91.066 17.002h74v74h-74z" fill="#e96c7a"/></g></g><g><g><path d="m165.066 15.502h-26.634c-.828 0-1.5.671-1.5 1.5s.672 1.5 1.5 1.5h25.134v71h-71v-71h31.8c.828 0 1.5-.671 1.5-1.5s-.672-1.5-1.5-1.5h-33.3c-.828 0-1.5.671-1.5 1.5v74c0 .829.672 1.5 1.5 1.5h74c.828 0 1.5-.671 1.5-1.5v-74c0-.829-.672-1.5-1.5-1.5z" fill="#3a312a"/></g></g><g><g><path d="m91.066 165h74v74h-74z" fill="#89c4db"/></g></g><g><g><path d="m165.066 163.5h-74c-.828 0-1.5.671-1.5 1.5v74c0 .829.672 1.5 1.5 1.5h74c.828 0 1.5-.671 1.5-1.5v-74c0-.829-.672-1.5-1.5-1.5zm-1.5 74h-71v-71h71z" fill="#3a312a"/></g></g><g><g><path d="m165.066 165v74h54.699c10.66 0 19.301-8.641 19.301-19.301v-54.699z" fill="#89c4db"/></g></g><g><g><path d="m239.066 163.5h-74c-.828 0-1.5.671-1.5 1.5v74c0 .829.672 1.5 1.5 1.5h54.699c11.47 0 20.801-9.331 20.801-20.801v-54.699c0-.829-.672-1.5-1.5-1.5zm-1.5 56.199c0 9.815-7.985 17.801-17.801 17.801h-53.199v-71h71z" fill="#3a312a"/></g></g><g><g><path d="m91.066 91h74v74h-74z" fill="#d4da55"/></g></g><g><g><path d="m165.066 89.5h-74c-.828 0-1.5.671-1.5 1.5v74c0 .829.672 1.5 1.5 1.5h74c.828 0 1.5-.671 1.5-1.5v-74c0-.829-.672-1.5-1.5-1.5zm-1.5 74h-71v-71h71z" fill="#3a312a"/></g></g><g><g><path d="m17.066 165v54.699c0 10.66 8.641 19.301 19.301 19.301h54.699v-74z" fill="#89c4db"/></g></g><g><g><path d="m91.066 163.5h-74c-.828 0-1.5.671-1.5 1.5v54.699c0 11.47 9.331 20.801 20.801 20.801h54.699c.828 0 1.5-.671 1.5-1.5v-74c0-.829-.672-1.5-1.5-1.5zm-1.5 74h-53.2c-9.815 0-17.801-7.985-17.801-17.801v-53.199h71v71z" fill="#3a312a"/></g></g><g><g><path d="m219.766 18.5h-16c9.81 0 17.8 7.99 17.8 17.8v53.2h16v-53.2c0-9.81-7.99-17.8-17.8-17.8z" fill="#d34e5c"/></g></g><g><g><path d="m221.566 92.5h16v71h-16z" fill="#b9c239"/></g></g><g><g><path d="m221.566 166.5v53.2c0 9.81-7.99 17.8-17.8 17.8h16c9.81 0 17.8-7.99 17.8-17.8v-53.2z" fill="#6ca8bf"/></g></g></g></svg>