<svg height="512pt" viewBox="0 0 512 512" width="512pt" xmlns="http://www.w3.org/2000/svg"><path d="m45 447.816406c-8.285156 0-15-6.714844-15-15v-49.816406c0-78.300781 63.699219-142 142-142h54c8.285156 0 15 6.714844 15 15s-6.714844 15-15 15h-54c-61.757812 0-112 50.242188-112 112v49.820312c0 8.28125-6.714844 14.996094-15 14.996094zm0 0" fill="#ff51bd"/><path d="m340 271h-54c-8.285156 0-15-6.714844-15-15s6.714844-15 15-15h54c61.757812 0 112-50.242188 112-112v-49.816406c0-8.285156 6.714844-15 15-15s15 6.714844 15 15v49.816406c0 78.300781-63.699219 142-142 142zm0 0" fill="#ff347b"/><path d="m497 90h-60c-8.285156 0-15-6.714844-15-15v-60c0-8.285156 6.714844-15 15-15h60c8.285156 0 15 6.714844 15 15v60c0 8.285156-6.714844 15-15 15zm0 0" fill="#ffcab1"/><path d="m75 512h-60c-8.285156 0-15-6.714844-15-15v-60c0-8.285156 6.714844-15 15-15h60c8.285156 0 15 6.714844 15 15v60c0 8.285156-6.714844 15-15 15zm0 0" fill="#ffeccf"/><path d="m286 301h-60c-8.285156 0-15-6.714844-15-15v-60c0-8.285156 6.714844-15 15-15h60c8.285156 0 15 6.714844 15 15v60c0 8.285156-6.714844 15-15 15zm0 0" fill="#ffeccf"/><path d="m286 211h-29.917969v90h29.917969c8.285156 0 15-6.714844 15-15v-60c0-8.285156-6.714844-15-15-15zm0 0" fill="#ffcab1"/></svg>