<svg id="Capa_1" enable-background="new 0 0 496.762 496.762" height="512" viewBox="0 0 496.762 496.762" width="512" xmlns="http://www.w3.org/2000/svg"><g><g><path d="m252.239 495.996 238.444-98.47-242.304-100.064-242.305 100.065 238.444 98.47c2.472 1.021 5.249 1.021 7.721-.001z" fill="#26a6fe"/><path d="m490.684 397.527v-275.43c0-3.897-2.239-7.447-5.756-9.127l-236.549-112.97v297.462z" fill="#fea613"/><path d="m490.689 397.524-238.45 98.47c-2.47 1.02-5.25 1.02-7.72 0l-16.44-6.773c.15-.05.31-.11.46-.17l241.15-100.197z" fill="#0593fc"/><path d="m490.689 122.094v275.43l-21-8.67v-282.34c0-.28-.01-.56-.04-.84l15.28 7.3c3.52 1.68 5.76 5.23 5.76 9.12z" fill="#fb8801"/><path d="m6.074 397.527v-275.43c0-3.897 2.239-7.447 5.756-9.127l236.549-112.97v297.462z" fill="#fe5694"/></g></g></svg>