<svg id="Capa_1" enable-background="new 0 0 512 512" height="512" viewBox="0 0 512 512" width="512" xmlns="http://www.w3.org/2000/svg"><g><g><g><path d="m150.5 15c-90.563 0-103.405 108.077-105.208 240.998l210.708-.644c-.008-98.894-1.89-240.354-105.5-240.354z" fill="#09eaa3"/><path d="m256 255.354v.646c0 98.922 1.664 241 105.5 241 90.857 0 103.488-108.779 105.226-242.291z" fill="#ed2061"/></g><path d="m0 241h512v30h-512z" fill="#56788b"/><path d="m256 241h256v30h-256z" fill="#304b59"/><path d="m482 181.22v15c0 41.91-.14 79.47-1.9 114.7-2.05 41.06-5.97 72.43-12.33 98.73-7.79 32.17-19.24 56.02-35.02 72.91-18.25 19.53-42.22 29.44-71.25 29.44-28.51 0-52.37-9.48-70.94-28.18-15.23-15.34-26.55-36.29-34.56-63.99-.22-.72-.42-1.45-.63-2.19-14.37-51.36-14.37-115.1-14.37-161.64 0-114.35-6.99-226-90.5-226-84.2 0-90.5 113.15-90.5 285.78v15h-30v-15c0-41.91.14-79.47 1.9-114.7 2.05-41.06 5.97-72.43 12.33-98.73 7.79-32.17 19.24-56.02 35.02-72.91 18.25-19.53 42.22-29.44 71.25-29.44 28.51 0 52.37 9.48 70.94 28.18 15.23 15.34 26.55 36.29 34.56 63.99.22.72.42 1.45.63 2.19 14.37 51.36 14.37 115.1 14.37 161.64 0 114.35 6.99 226 90.5 226 84.2 0 90.5-113.15 90.5-285.78v-15z" fill="#fbdf63"/></g><path d="m482 181.22v15c0 41.91-.14 79.47-1.9 114.7-2.05 41.06-5.97 72.43-12.33 98.73-7.79 32.17-19.24 56.02-35.02 72.91-18.25 19.53-42.22 29.44-71.25 29.44-28.51 0-52.37-9.48-70.94-28.18-15.23-15.34-26.55-36.29-34.56-63.99v-327.66c.22.72.42 1.45.63 2.19 14.37 51.36 14.37 115.1 14.37 161.64 0 114.35 6.99 226 90.5 226 84.2 0 90.5-113.15 90.5-285.78v-15z" fill="#f7b521"/></g></svg>