<svg height="512pt" viewBox="0 0 512 512" width="512pt" xmlns="http://www.w3.org/2000/svg"><path d="m443.734375 0h-375.46875c-37.703125 0-68.265625 30.5625-68.265625 68.265625v324.265625l170.667969-170.664062 59.730469 59.730468 145.066406-145.066406 136.535156 136.535156v-204.800781c0-37.703125-30.5625-68.265625-68.265625-68.265625zm-221.867187 136.53125c-18.851563 0-34.132813-15.28125-34.132813-34.132812 0-18.851563 15.28125-34.132813 34.132813-34.132813 18.851562 0 34.132812 15.28125 34.132812 34.132813 0 18.851562-15.28125 34.132812-34.132812 34.132812zm0 0" fill="#c2dff6"/><path d="m375.464844 136.53125-145.066406 145.070312-59.730469-59.734374-170.667969 170.664062v51.203125c0 37.699219 30.5625 68.265625 68.265625 68.265625h375.46875c37.699219 0 68.265625-30.566406 68.265625-68.265625v-170.667969zm0 0" fill="#00ccb3"/><path d="m256 102.398438c0 18.851562-15.28125 34.132812-34.132812 34.132812-18.851563 0-34.132813-15.28125-34.132813-34.132812 0-18.851563 15.28125-34.132813 34.132813-34.132813 18.851562 0 34.132812 15.28125 34.132812 34.132813zm0 0" fill="#ffde55"/></svg>