<?xml version="1.0" encoding="iso-8859-1"?>
<!-- Generator: Adobe Illustrator 19.0.0, SVG Export Plug-In . SVG Version: 6.00 Build 0)  -->
<svg version="1.1" id="Layer_1" xmlns="http://www.w3.org/2000/svg" xmlns:xlink="http://www.w3.org/1999/xlink" x="0px" y="0px"
	 viewBox="0 0 481.882 481.882" style="enable-background:new 0 0 481.882 481.882;" xml:space="preserve">
<path style="fill:#FCD462;" d="M470.438,79.511H239.134l59.031,118.061c60.235,18.673,104.809,73.487,108.424,139.144h63.849V79.511
	z"/>
<path style="fill:#F6C358;" d="M298.165,197.572L239.134,79.511h-19.275l56.621,113.242
	C283.708,193.958,290.936,195.162,298.165,197.572z"/>
<path style="fill:#44C4A1;" d="M219.859,79.511L180.104,0L11.445,337.318h87.341c3.614-67.464,50.598-124.085,113.845-140.951
	c12.649-3.614,25.901-5.421,39.755-5.421c7.831,0,15.661,0.602,23.492,1.807L219.859,79.511z"/>
<path style="fill:#F6C358;" d="M298.165,197.572l69.873,139.144h38.551C403.576,271.059,359.002,216.245,298.165,197.572z"/>
<path style="fill:#DC8744;" d="M348.16,337.318h19.878l-69.873-139.746c-7.228-2.409-14.456-3.614-22.287-4.819L348.16,337.318z"/>
<path style="fill:#3EA69B;" d="M276.48,192.753c-7.831-1.205-15.661-1.807-23.492-1.807c-13.854,0-27.106,1.807-39.755,5.421
	C149.986,213.233,102.4,269.252,99.388,337.318h113.845h135.529L276.48,192.753z"/>
<circle style="fill:#E56353;" cx="252.988" cy="345.148" r="136.734"/>
<g>
</g>
<g>
</g>
<g>
</g>
<g>
</g>
<g>
</g>
<g>
</g>
<g>
</g>
<g>
</g>
<g>
</g>
<g>
</g>
<g>
</g>
<g>
</g>
<g>
</g>
<g>
</g>
<g>
</g>
</svg>
