<?xml version="1.0" encoding="iso-8859-1"?>
<!-- Generator: Adobe Illustrator 19.0.0, SVG Export Plug-In . SVG Version: 6.00 Build 0)  -->
<svg version="1.1" id="Capa_1" xmlns="http://www.w3.org/2000/svg" xmlns:xlink="http://www.w3.org/1999/xlink" x="0px" y="0px"
	 viewBox="0 0 512 512" style="enable-background:new 0 0 512 512;" xml:space="preserve">
<path style="fill:#F2F2F4;" d="M330,512H0V165C0,74.019,74.019,0,165,0h347v330H330V512z"/>
<polygon style="fill:#DFDFE1;" points="256,0 256,512 330,512 330,330 512,330 512,0 "/>
<path style="fill:#FF6849;" d="M512,150H190.964c-5.195-8.958-14.884-15-25.964-15c-16.542,0-30,13.458-30,30
	c0,11.08,6.042,20.769,15,25.964V512h30V190.964c4.542-2.634,8.33-6.422,10.964-10.964H512V150z"/>
<rect x="256" y="150" style="fill:#E8130F;" width="256" height="30"/>
<g>
</g>
<g>
</g>
<g>
</g>
<g>
</g>
<g>
</g>
<g>
</g>
<g>
</g>
<g>
</g>
<g>
</g>
<g>
</g>
<g>
</g>
<g>
</g>
<g>
</g>
<g>
</g>
<g>
</g>
</svg>
