<svg id="Capa_1" enable-background="new 0 0 512 512" height="512" viewBox="0 0 512 512" width="512" xmlns="http://www.w3.org/2000/svg"><g><path d="m427.254 84.563c-2.753-2.753-6.558-4.176-10.445-3.896l-47.724 3.406c-5.307.379-9.759 3.711-11.618 8.695-1.86 4.985-.678 10.419 3.085 14.18l16.802 16.802-32.541 32.542c-2.958 2.959-2.958 7.753 0 10.712 1.479 1.478 3.418 2.218 5.356 2.218s3.877-.74 5.356-2.218l32.541-32.542 16.803 16.803c2.584 2.585 5.956 3.951 9.43 3.951 1.584 0 3.189-.284 4.75-.866 4.984-1.86 8.317-6.312 8.695-11.619l3.405-47.723c.279-3.884-1.141-7.691-3.895-10.445z" fill="#5392f9"/><g><path d="m306.206 194.443h-269.793c-6.37 0-11.534 5.164-11.534 11.534v255.951l265.342-7.646 27.517-81.932v-166.373c.002-6.37-5.162-11.534-11.532-11.534z" fill="#ddebfd"/><path d="m306.206 194.443h-30.752c6.37 0 11.534 5.164 11.534 11.534v214.814l30.752-48.441v-166.373c0-6.37-5.164-11.534-11.534-11.534z" fill="#bed9fd"/><path d="m242.959 429.603-81.146-93.081c-7.299-8.372-20.309-8.372-27.608 0l-109.325 125.405v13.842c0 6.37 5.164 11.534 11.534 11.534h269.793c6.37 0 11.534-5.164 11.534-11.534v-103.419l-63.724 57.896c-3.216 2.921-8.204 2.631-11.058-.643z" fill="#5392f9"/><path d="m286.988 475.769c0 6.369-5.161 11.531-11.529 11.534h30.747c5.972 0 10.883-4.539 11.474-10.355.039-.387.06-.781.06-1.179v-103.419l-30.752 27.94z" fill="#4071f7"/><path d="m248.538 259.55c-14.402 0-26.118 11.716-26.118 26.118s11.716 26.118 26.118 26.118c14.401 0 26.117-11.716 26.117-26.118s-11.716-26.118-26.117-26.118z" fill="#eec06b"/></g><g fill="#db387e"><path d="m55.13 0h-45.354c-5.29 0-9.594 4.304-9.594 9.595v45.354c0 5.29 4.304 9.594 9.594 9.594h45.354c5.29 0 9.594-4.304 9.594-9.594v-45.354c0-5.291-4.304-9.595-9.594-9.595z"/><path d="m502.224.364h-45.354c-5.29 0-9.594 4.304-9.594 9.595v45.354c0 5.29 4.304 9.594 9.594 9.594h45.354c5.29 0 9.594-4.304 9.594-9.594v-45.354c0-5.291-4.304-9.595-9.594-9.595z"/><path d="m502.224 447.458h-45.354c-5.29 0-9.594 4.304-9.594 9.594v45.354c0 5.291 4.304 9.595 9.594 9.595h45.354c5.29 0 9.594-4.304 9.594-9.595v-45.354c0-5.291-4.304-9.594-9.594-9.594z"/></g><g fill="#407194"><g><path d="m32.454 115.268c-4.183 0-7.574-3.391-7.574-7.574v-11.704c0-4.183 3.391-7.574 7.574-7.574s7.574 3.391 7.574 7.574v11.704c0 4.184-3.391 7.574-7.574 7.574z"/><path d="m32.454 166.715c-4.183 0-7.574-3.391-7.574-7.574v-11.704c0-4.183 3.391-7.574 7.574-7.574s7.574 3.391 7.574 7.574v11.704c0 4.183-3.391 7.574-7.574 7.574z"/></g><g><path d="m479.546 115.268c-4.183 0-7.574-3.391-7.574-7.574v-11.704c0-4.183 3.391-7.574 7.574-7.574s7.574 3.391 7.574 7.574v11.704c0 4.184-3.39 7.574-7.574 7.574z"/><path d="m479.546 166.715c-4.183 0-7.574-3.391-7.574-7.574v-11.704c0-4.183 3.391-7.574 7.574-7.574s7.574 3.391 7.574 7.574v11.704c0 4.183-3.39 7.574-7.574 7.574z"/><path d="m479.546 218.162c-4.183 0-7.574-3.391-7.574-7.574v-11.704c0-4.183 3.391-7.574 7.574-7.574s7.574 3.391 7.574 7.574v11.704c0 4.183-3.39 7.574-7.574 7.574z"/><path d="m479.546 269.608c-4.183 0-7.574-3.391-7.574-7.574v-11.704c0-4.183 3.391-7.574 7.574-7.574s7.574 3.391 7.574 7.574v11.704c0 4.184-3.39 7.574-7.574 7.574z"/><path d="m479.546 321.054c-4.183 0-7.574-3.391-7.574-7.574v-11.704c0-4.183 3.391-7.574 7.574-7.574s7.574 3.391 7.574 7.574v11.704c0 4.184-3.39 7.574-7.574 7.574z"/><path d="m479.546 372.501c-4.183 0-7.574-3.391-7.574-7.574v-11.704c0-4.183 3.391-7.574 7.574-7.574s7.574 3.391 7.574 7.574v11.704c0 4.183-3.39 7.574-7.574 7.574z"/><path d="m479.546 423.948c-4.183 0-7.574-3.391-7.574-7.574v-11.704c0-4.183 3.391-7.574 7.574-7.574s7.574 3.391 7.574 7.574v11.704c0 4.183-3.39 7.574-7.574 7.574z"/></g><g><path d="m416.191 40.209h-11.704c-4.183 0-7.574-3.391-7.574-7.574s3.391-7.574 7.574-7.574h11.704c4.183 0 7.574 3.391 7.574 7.574s-3.39 7.574-7.574 7.574z"/><path d="m364.745 40.209h-11.705c-4.183 0-7.574-3.391-7.574-7.574s3.391-7.574 7.574-7.574h11.704c4.183 0 7.574 3.391 7.574 7.574s-3.39 7.574-7.573 7.574z"/><path d="m313.299 40.209h-11.704c-4.183 0-7.574-3.391-7.574-7.574s3.391-7.574 7.574-7.574h11.704c4.183 0 7.574 3.391 7.574 7.574s-3.391 7.574-7.574 7.574z"/><path d="m261.852 40.209h-11.704c-4.183 0-7.574-3.391-7.574-7.574s3.391-7.574 7.574-7.574h11.704c4.183 0 7.574 3.391 7.574 7.574s-3.391 7.574-7.574 7.574z"/><path d="m210.405 40.209h-11.704c-4.183 0-7.574-3.391-7.574-7.574s3.391-7.574 7.574-7.574h11.704c4.183 0 7.574 3.391 7.574 7.574s-3.39 7.574-7.574 7.574z"/><path d="m158.96 40.209h-11.704c-4.183 0-7.574-3.391-7.574-7.574s3.391-7.574 7.574-7.574h11.704c4.183 0 7.574 3.391 7.574 7.574s-3.391 7.574-7.574 7.574z"/><path d="m107.513 40.209h-11.704c-4.183 0-7.574-3.391-7.574-7.574s3.391-7.574 7.574-7.574h11.704c4.183 0 7.574 3.391 7.574 7.574s-3.391 7.574-7.574 7.574z"/></g><g><path d="m416.191 487.303h-11.704c-4.183 0-7.574-3.391-7.574-7.574s3.391-7.574 7.574-7.574h11.704c4.183 0 7.574 3.391 7.574 7.574s-3.39 7.574-7.574 7.574z"/><path d="m364.745 487.303h-11.705c-4.183 0-7.574-3.391-7.574-7.574s3.391-7.574 7.574-7.574h11.704c4.183 0 7.574 3.391 7.574 7.574.001 4.183-3.39 7.574-7.573 7.574z"/></g></g></g></svg>