<svg id="Capa_1" enable-background="new 0 0 510 510" height="512" viewBox="0 0 510 510" width="512" xmlns="http://www.w3.org/2000/svg"><path d="m456.615 296.992-40.899-.521c-16.968-.216-32.952 7.962-42.742 21.873l-23.618 33.529c-24.665 35.012-78.612 26.438-91.302-14.522l-12.135-39.217c-2.515-8.133-6.954-15.394-12.771-21.235-5.826-5.85-13.048-10.299-21.147-12.824l-39.064-12.195c-40.8-12.734-49.338-66.905-14.453-91.671l33.39-23.715c13.854-9.831 21.998-25.881 21.774-42.911l-.519-41.068c-.546-42.893 48.13-67.794 82.362-42.138l32.782 24.56c13.594 10.182 31.314 13.003 47.378 7.531l38.742-13.183c20.235-6.893 39.995-.638 52.99 12.41s19.232 32.9 12.368 53.218l-13.138 38.894c-5.45 16.131-2.64 33.924 7.5 47.575l24.477 32.918c25.54 34.38.741 83.24-41.975 82.692z" fill="#ffeb95"/><path d="m456.7 296.992-40.899-.521c-16.968-.216-32.952 7.962-42.742 21.873l-23.618 33.529c-24.665 35.012-78.612 26.438-91.302-14.522l-12.135-39.217c-2.515-8.133-6.954-15.394-12.771-21.235l234.233-235.206c12.995 13.048 19.232 32.9 12.368 53.218l-13.138 38.894c-5.45 16.131-2.64 33.924 7.5 47.575l24.477 32.918c25.542 34.382.743 83.242-41.973 82.694z" fill="#ffa84a"/><path d="m328.101 229.844-269.055 270.153c-13.281 13.336-34.795 13.336-48.085.009l-.009-.009c-6.632-6.659-9.952-15.403-9.952-24.138s3.32-17.479 9.961-24.147l269.055-270.152z" fill="#435d7a"/><path d="m328.101 229.844-269.055 270.153c-13.281 13.336-34.795 13.336-48.085.009l293.094-294.309z" fill="#2d3e53"/><path d="m363.156 194.662-42.572 42.749-48.094-48.294 42.572-42.749c13.281-13.336 34.795-13.336 48.085-.009l.009.009c13.28 13.335 13.282 34.957 0 48.294z" fill="#fff"/><path d="m363.156 194.662-42.572 42.749-24.056-24.156 66.619-66.896.009.009c13.28 13.335 13.282 34.957 0 48.294z" fill="#a6cfe7"/></svg>