<svg id="Capa_1" enable-background="new 0 0 512 512" height="512" viewBox="0 0 512 512" width="512" xmlns="http://www.w3.org/2000/svg"><g><g><path d="m122.938 205.261c-8.284 0-15-6.716-15-15v-115.019c0-8.284 6.716-15 15-15h170.026c8.284 0 15 6.716 15 15s-6.716 15-15 15h-155.026v100.019c0 8.284-6.716 15-15 15z" fill="#FF419b"/></g><g><path d="m114.633 388.96c-8.284 0-15-6.716-15-15v-82.534c0-8.284 6.716-15 15-15s15 6.716 15 15v82.534c0 8.285-6.716 15-15 15z" fill="#FF419b"/></g><g><path d="m332.271 437.936h-112.801c-8.284 0-15-6.716-15-15s6.716-15 15-15h112.802c8.284 0 15 6.716 15 15s-6.716 15-15.001 15z" fill="#FF419b"/></g><g><path d="m397.367 381.187c-8.284 0-15-6.716-15-15v-75.953c0-8.284 6.716-15 15-15s15 6.716 15 15v75.953c0 8.284-6.716 15-15 15z" fill="#FF3b73"/></g><path d="m214.266 366.202h-199.266c-8.284 0-15 6.716-15 15v83.468c0 8.284 6.716 15 15 15h199.266c8.284 0 15-6.716 15-15v-83.468c0-8.285-6.716-15-15-15z" fill="#ffd830"/><path d="m214.266 185.443h-199.266c-8.284 0-15 6.716-15 15v83.468c0 8.284 6.716 15 15 15h199.266c8.284 0 15-6.716 15-15v-83.468c0-8.284-6.716-15-15-15z" fill="#5ce6b8"/><path d="m332.271 407.936h-78.041v30h78.042c8.284 0 15-6.716 15-15s-6.716-15-15.001-15z" fill="#FF3b73"/><path d="m292.964 60.242h-38.734v30h38.734c8.284 0 15-6.716 15-15s-6.716-15-15-15z" fill="#FF3b73"/><circle cx="397.367" cy="422.936" fill="#3dccb4" r="70.557"/><path d="m497 18.508h-199.267c-8.284 0-15 6.716-15 15v83.468c0 8.284 6.716 15 15 15h199.267c8.284 0 15-6.716 15-15v-83.468c0-8.284-6.716-15-15-15z" fill="#3dccb4"/><path d="m497 185.443h-199.267c-8.284 0-15 6.716-15 15v83.468c0 8.284 6.716 15 15 15h199.267c8.284 0 15-6.716 15-15v-83.468c0-8.284-6.716-15-15-15z" fill="#ffb44b"/></g></svg>