<svg id="Capa_1" enable-background="new 0 0 512 512" height="512" viewBox="0 0 512 512" width="512" xmlns="http://www.w3.org/2000/svg"><g><g><path clip-rule="evenodd" d="m414.173 128.687v130.789h-8.814c-9.367.175-13.294 8.698-8.901 15.418l39.183 53.38c4.451 7.418 12.45 7.418 16.901 0l39.183-53.38c4.392-6.72.465-15.243-8.901-15.418h-8.814v-130.789c-7.51-6.437-20.276-14.687-31.01-14.687-10.763 0-20.25 3.75-28.827 14.687z" fill="#f9f7f8" fill-rule="evenodd"/></g><g><path clip-rule="evenodd" d="m384.327 413.741h-130.814v-8.814c-.145-9.367-8.698-13.294-15.417-8.902l-53.379 39.184c-7.418 4.451-7.418 12.451 0 16.901l53.379 39.184c6.72 4.393 15.272.465 15.417-8.902v-8.814h130.814c10.923-4.578 15.673-16.344 15.673-27.078 0-10.763 1.5-24-15.673-32.759z" fill="#f9f7f8" fill-rule="evenodd"/></g><g><path clip-rule="evenodd" d="m97.245 383.313v-130.789h8.843c9.367-.175 13.265-8.727 8.901-15.447l-39.183-53.351c-4.48-7.447-12.45-7.447-16.93 0l-39.183 53.351c-4.363 6.72-.465 15.272 8.901 15.447h8.814v130.789c3.592 15.187 22.162 21.687 32.925 21.687 10.734 0 27.167-4.75 26.912-21.687z" fill="#f9f7f8" fill-rule="evenodd"/></g><g><path clip-rule="evenodd" d="m308.404 255.985c0-26.094-21.177-47.271-47.27-47.271-26.122 0-47.299 21.178-47.299 47.271 0 26.123 21.177 47.271 47.299 47.271 26.093.001 47.27-21.148 47.27-47.271z" fill="#f9f7f8" fill-rule="evenodd"/></g><g><path clip-rule="evenodd" d="m261.134 208.714c26.093 0 47.27 21.178 47.27 47.271 0 26.123-21.177 47.271-47.27 47.271-26.122 0-47.299-21.148-47.299-47.271 0-26.093 21.177-47.271 47.299-47.271zm44.216-27.345c-7.01-4.16-14.632-7.36-22.719-9.425v-9.28c0-4.422-3.636-8.029-8.058-8.029h-26.908c-4.422 0-8.029 3.607-8.029 8.029v9.28c-8.087 2.065-15.737 5.265-22.719 9.425l-6.574-6.545c-3.142-3.142-8.261-3.142-11.374 0l-19.024 18.996c-3.142 3.142-3.142 8.262 0 11.374l6.574 6.574c-4.16 7.011-7.36 14.632-9.425 22.719h-9.279c-4.422 0-8.058 3.636-8.058 8.058v26.879c0 4.451 3.636 8.058 8.058 8.058h9.279c2.065 8.087 5.265 15.738 9.425 22.719l-6.574 6.574c-3.142 3.142-3.142 8.262 0 11.374l19.024 19.025c3.113 3.113 8.232 3.113 11.374 0l6.574-6.574c6.981 4.16 14.632 7.36 22.719 9.425v9.28c0 4.422 3.607 8.058 8.029 8.058h26.908c4.422 0 8.058-3.636 8.058-8.058v-9.28c8.087-2.065 15.708-5.265 22.719-9.425l6.545 6.574c3.142 3.113 8.261 3.113 11.403 0l18.995-19.025c3.142-3.113 3.142-8.232 0-11.374l-6.545-6.574c4.131-6.982 7.36-14.632 9.425-22.719h9.25c4.451 0 8.058-3.607 8.058-8.058v-26.879c0-4.422-3.607-8.058-8.058-8.058h-9.25c-2.065-8.087-5.265-15.709-9.425-22.719l6.545-6.574c3.142-3.113 3.142-8.232 0-11.374l-18.995-18.996c-3.142-3.142-8.261-3.142-11.403 0z" fill="#beb9dd" fill-rule="evenodd"/></g><g><path clip-rule="evenodd" d="m274.573 154.636h-23.126c6.836 14.487 12.159 33.163 15.272 54.398 23.475 2.793 41.685 22.748 41.685 46.951 0 24.552-18.704 44.711-42.616 47.068-3.694 21.672-9.716 40.406-17.308 54.311h26.093c4.422 0 8.058-3.636 8.058-8.058v-9.28c8.087-2.065 15.708-5.265 22.719-9.425l6.545 6.574c3.142 3.113 8.261 3.113 11.403 0l18.995-19.025c3.142-3.113 3.142-8.232 0-11.374l-6.545-6.574c4.131-6.982 7.36-14.632 9.425-22.719h9.25c4.451 0 8.058-3.607 8.058-8.058v-26.879c0-4.422-3.607-8.058-8.058-8.058h-9.25c-2.065-8.087-5.265-15.709-9.425-22.719l6.545-6.574c3.142-3.113 3.142-8.232 0-11.374l-18.995-18.996c-3.142-3.142-8.261-3.142-11.403 0l-6.545 6.545c-7.01-4.16-14.632-7.36-22.719-9.425v-9.28c0-4.422-3.636-8.029-8.058-8.029z" fill="#a7a2d3" fill-rule="evenodd"/></g><g><path clip-rule="evenodd" d="m308.404 255.985c0-24.203-18.21-44.159-41.685-46.951 2.036 13.76 3.142 28.596 3.142 44.042 0 17.687-1.454 34.588-4.072 49.977 23.911-2.356 42.615-22.516 42.615-47.068z" fill="#dddaec" fill-rule="evenodd"/></g><g><path clip-rule="evenodd" d="m129.854 98.23c4.48-8.989 7.01-19.17 7.01-29.905 0-10.763-2.531-20.916-7.01-29.934-10.996-22.167-33.889-37.41-60.331-37.41-29.206 0-54.077 18.589-63.415 44.566-2.56 7.098-3.956 14.778-3.956 22.778s1.396 15.65 3.956 22.777c9.338 25.977 34.209 44.566 63.415 44.566 26.442.001 49.336-15.242 60.331-37.438z" fill="#ffd772" fill-rule="evenodd"/></g><g><path clip-rule="evenodd" d="m115 69.333c0 10.734 4 20.333 14.854 28.897h130.814v8.814c.145 9.367 8.698 13.294 15.417 8.931l53.379-39.184c7.418-4.48 7.418-12.451 0-16.93l-53.379-39.184c-6.72-4.364-15.272-.465-15.417 8.902v8.814h-130.814c-7.521 2.607-15.854 5.177-15.854 15.94z" fill="#f9f7f8" fill-rule="evenodd"/></g><g><path clip-rule="evenodd" d="m376.735 68.326c0 26.443 15.243 49.337 37.438 60.362 9.018 4.48 19.17 6.982 29.933 6.982 10.734 0 20.886-2.502 29.904-6.982 22.195-11.025 37.438-33.919 37.438-60.362 0-37.206-30.166-67.343-67.342-67.343-37.205-.001-67.371 30.136-67.371 67.343z" fill="#75cef8" fill-rule="evenodd"/></g><g><path clip-rule="evenodd" d="m444.658 376.302c-26.442 0-49.335 15.243-60.331 37.439-4.48 9.018-7.011 19.17-7.011 29.934 0 10.734 2.531 20.887 7.011 29.905 10.996 22.196 33.889 37.439 60.331 37.439 37.205 0 67.342-30.166 67.342-67.343 0-37.208-30.136-67.374-67.342-67.374z" fill="#eb5468" fill-rule="evenodd"/></g><g><path clip-rule="evenodd" d="m134.683 443.674c0-26.472-15.243-49.337-37.438-60.362-8.989-4.48-19.17-7.011-29.904-7.011-10.763 0-20.915 2.531-29.933 7.011-13.759 6.836-24.871 18.239-31.3 32.261-3.926 8.553-6.108 18.065-6.108 28.101 0 10.007 2.182 19.519 6.109 28.072 10.647 23.185 34.064 39.272 61.233 39.272 37.205 0 67.341-30.166 67.341-67.344z" fill="#a7e9a6" fill-rule="evenodd"/></g><g><path clip-rule="evenodd" d="m69.523 135.669c26.442 0 49.335-15.243 60.331-37.439 4.48-8.989 7.01-19.17 7.01-29.905 0-10.763-2.531-20.916-7.01-29.934-10.996-22.167-33.889-37.41-60.331-37.41-5.323 0-10.472.611-15.417 1.774 14.603 6.313 26.558 17.687 33.598 31.883 4.48 9.018 7.011 19.17 7.011 29.934 0 10.734-2.531 20.916-7.011 29.905-8.814 17.745-25.191 31.039-44.943 35.664 8.203 3.55 17.25 5.528 26.762 5.528z" fill="#fbba58" fill-rule="evenodd"/></g><g><path clip-rule="evenodd" d="m134.683 443.674c0-26.472-15.243-49.337-37.438-60.362-8.989-4.48-19.17-7.011-29.904-7.011-5.294 0-10.472.611-15.417 1.775 1.076.465 2.124.96 3.171 1.484 7.941 3.927 15.01 9.396 20.77 16 10.385 11.84 16.668 27.374 16.668 44.333 0 31.912-22.166 58.616-51.953 65.598 8.203 3.549 17.25 5.527 26.762 5.527 37.205 0 67.341-30.166 67.341-67.344z" fill="#7fdbae" fill-rule="evenodd"/></g><g><path clip-rule="evenodd" d="m469.85 439.893c0 31.912-22.166 58.616-51.924 65.598 8.203 3.549 17.25 5.527 26.733 5.527 37.205 0 67.342-30.166 67.342-67.343 0-37.206-30.136-67.373-67.342-67.373-5.294 0-10.443.611-15.388 1.775 23.881 10.355 40.579 34.151 40.579 61.816z" fill="#e5384f" fill-rule="evenodd"/></g><g><path clip-rule="evenodd" d="m474.009 128.687c22.195-11.025 37.438-33.919 37.438-60.362 0-37.206-30.166-67.343-67.342-67.343-5.323 0-10.472.611-15.417 1.774 23.882 10.327 40.609 34.123 40.609 61.816 0 20.858-9.483 39.504-24.377 51.838-3.985 3.316-8.378 6.196-13.061 8.523-4.567 2.269-9.425 4.014-14.516 5.207 8.203 3.549 17.25 5.527 26.762 5.527 10.735.002 20.887-2.5 29.904-6.98z" fill="#60b7ff" fill-rule="evenodd"/></g><g><path clip-rule="evenodd" d="m69.407 288.77v87.561c9.978.32 19.432 2.793 27.838 6.982v-130.789h8.843c9.367-.175 13.265-8.727 8.901-15.447l-39.183-53.351c-4.48-7.447-12.45-7.447-16.93 0l-2.56 3.491 30.806 42.006c4.392 6.691.465 15.243-8.901 15.418-13.497-.001-8.814 28.828-8.814 44.129z" fill="#dddaec" fill-rule="evenodd"/></g><g><path clip-rule="evenodd" d="m342.468 421.188c0 19.17-5.44 37.09-14.923 52.391h56.782c-4.48-9.018-7.011-19.17-7.011-29.905 0-10.763 2.531-20.916 7.011-29.934h-42.121c.175 2.444.262 4.946.262 7.448z" fill="#dddaec" fill-rule="evenodd"/></g><g><path clip-rule="evenodd" d="m444.891 135.669v102.31c0 11.461-2.211 21.498 8.814 21.498 9.367.175 13.265 8.698 8.901 15.418l-33.074 45.061 6.109 8.32c4.451 7.418 12.45 7.418 16.901 0l39.183-53.38c4.392-6.72.465-15.243-8.901-15.418h-8.814v-130.791c-8.786 4.364-18.676 6.866-29.119 6.982z" fill="#dddaec" fill-rule="evenodd"/></g><g><path clip-rule="evenodd" d="m260.669 38.392h-38.252c1.28 7.883 1.978 16.203 1.978 24.785 0 12.421-1.454 24.261-4.102 35.054h40.376v8.814c.145 9.367 8.698 13.294 15.417 8.931l53.379-39.184c7.418-4.48 7.418-12.451 0-16.93l-53.379-39.184c-6.72-4.364-15.272-.465-15.417 8.902z" fill="#dddaec" fill-rule="evenodd"/></g><g><path d="m73.043 104.561c-4.267 0-7.727-3.459-7.727-7.727v-49.319h-4.462c-4.267 0-7.727-3.459-7.727-7.727s3.459-7.727 7.727-7.727h12.188c4.267 0 7.727 3.459 7.727 7.727v57.046c.001 4.267-3.459 7.727-7.726 7.727z" fill="#2b4d66"/></g><g><path d="m441.337 105.143c-11.195 0-12.063-.289-13.085-.63-2.524-.842-4.412-2.758-5.18-5.256-1.294-4.206.593-6.679 4.352-11.605 2.891-3.789 8.273-10.841 17.248-23.645 3.055-4.361 4.284-7.461 4.77-9.368l.159-1.213c-.214-3.6-3.211-6.463-6.864-6.463-3.274 0-6.103 2.327-6.727 5.532-.816 4.188-4.871 6.924-9.062 6.107-4.188-.816-6.923-4.873-6.107-9.062 2.035-10.448 11.244-18.031 21.896-18.031 12.313 0 22.33 10.017 22.33 22.33 0 .337-.022.674-.066 1.008l-.291 2.211c-.032.24-.075.48-.129.716-1.071 4.678-3.512 9.759-7.254 15.102-5.089 7.26-9.05 12.713-12.073 16.791 4.497-.019 9.581-.062 14.403-.123 4.303-.036 7.77 3.362 7.823 7.629s-3.362 7.77-7.629 7.823c-8.17.103-14.132.147-18.514.147z" fill="#2b4d66"/></g><g><path d="m75.488 480.579c-.024 0-.047 0-.07-.001-4.267-.038-7.696-3.528-7.658-7.795.027-3.073.055-6.45.082-9.979h-22.346c-2.735 0-5.265-1.445-6.655-3.801s-1.431-5.269-.108-7.663c4.778-8.648 20.636-37.198 24.08-41.465 3.434-4.212 8.11-5.885 12.527-4.507 4.44 1.384 7.578 5.639 7.994 10.839.188 2.113.153 16.798.069 31.143 4.225.049 7.635 3.49 7.635 7.726 0 4.267-3.459 7.727-7.727 7.727h-.014c-.032 4.138-.063 7.676-.085 10.116-.036 4.245-3.489 7.66-7.724 7.66zm-16.848-33.228h9.306c.034-5.931.059-11.661.068-16.503-2.727 4.72-6.001 10.487-9.374 16.503z" fill="#2b4d66"/></g><path d="m466.988 429.071c0-12.313-10.017-22.33-22.329-22.33-10.652 0-19.861 7.583-21.897 18.031-.816 4.189 1.919 8.246 6.107 9.062 4.192.814 8.246-1.919 9.062-6.107.624-3.206 3.454-5.533 6.728-5.533 3.791 0 6.876 3.085 6.876 6.877s-3.084 6.877-6.876 6.877c-4.267 0-7.727 3.459-7.727 7.727s3.459 7.727 7.727 7.727c3.791 0 6.876 3.072 6.876 6.847 0 3.792-3.084 6.877-6.876 6.877-3.41 0-6.335-2.539-6.795-5.837-.035-.271-.052-.602-.052-1.04 0-4.267-3.459-7.727-7.727-7.727s-7.727 3.459-7.727 7.727c0 1.121.057 2.085.19 3.103 1.527 10.961 11.033 19.227 22.11 19.227 12.313 0 22.329-10.017 22.329-22.33 0-5.57-2.06-10.666-5.454-14.579 3.394-3.918 5.455-9.021 5.455-14.599z" fill="#2b4d66"/></g></svg>