<svg id="Layer_1" enable-background="new 0 0 511.938 511.938" height="512" viewBox="0 0 511.938 511.938" width="512" xmlns="http://www.w3.org/2000/svg"><g><path d="m225.377 258.067-163.47-88.839c-7.272-3.95-15.858-3.787-22.973.443-7.115 4.229-11.362 11.696-11.362 19.973v206.089c0 8.339 4.502 16.079 11.752 20.201l163.473 92.933c3.603 2.048 7.545 3.072 11.486 3.072 4.017 0 8.032-1.063 11.684-3.188 7.232-4.208 11.551-11.716 11.551-20.084v-210.183c0-8.522-4.651-16.345-12.141-20.417z" fill="#4dffff"/><path d="m454.703 115.621c-.011-8.701-4.818-16.594-12.543-20.597l-178.258-92.416c-6.75-3.501-14.794-3.475-21.518.065l-175.636 92.415c-7.648 4.025-12.404 11.894-12.415 20.537-.01 8.64 4.728 16.52 12.364 20.563l175.637 92.993c3.401 1.8 7.134 2.7 10.87 2.7 3.69 0 7.38-.878 10.747-2.636l178.263-92.99c7.716-4.026 12.501-11.932 12.489-20.634z" fill="#feff89"/><path d="m473.004 169.67c-7.111-4.23-15.701-4.397-22.97-.444l-163.474 88.842c-7.488 4.071-12.139 11.893-12.139 20.416v210.181c0 8.368 4.318 15.877 11.551 20.084 3.651 2.125 7.666 3.187 11.684 3.187 3.94 0 7.884-1.023 11.486-3.071l163.474-92.933c7.249-4.121 11.751-11.862 11.751-20.201v-206.088c-.001-8.277-4.248-15.743-11.363-19.973z" fill="#f9007b"/><path d="m442.161 95.019-178.259-92.416c-3.322-1.723-6.957-2.587-10.595-2.603v231.873c3.655-.016 7.309-.892 10.644-2.633l178.263-92.99c7.716-4.025 12.501-11.931 12.49-20.634-.012-8.701-4.818-16.594-12.543-20.597z" fill="#ffe107"/></g></svg>